<?xml version="1.0" encoding="utf-8"?>
<!-- Generator: Adobe Illustrator 28.0.0, SVG Export Plug-In . SVG Version: 6.00 Build 0)  -->
<svg version="1.1" id="Layer_1" xmlns="http://www.w3.org/2000/svg" xmlns:xlink="http://www.w3.org/1999/xlink" x="0px" y="0px"
	 viewBox="0 0 46.7 35.7" style="enable-background:new 0 0 46.7 35.7;" xml:space="preserve">
<style type="text/css">
	.st0{fill-rule:evenodd;clip-rule:evenodd;fill:#FFFFFF;fill-opacity:1.000000e-02;}
	.st1{fill:none;stroke:#FFFFFF;stroke-width:2;}
	.st2{fill:none;stroke:#FFFFFF;stroke-width:2;stroke-linecap:square;}
	.st3{fill:none;stroke:#131313;stroke-width:2;stroke-linecap:square;}
	.st4{fill:none;stroke:#1B1B1B;stroke-width:2;}
	.st5{fill:none;stroke:#131313;stroke-width:2;}
	.st6{fill:#1B1B1B;}
	.st7{fill-rule:evenodd;clip-rule:evenodd;fill:#1B1B1B;}
	.st8{fill:#FFFFFF;}
</style>
<g id="icons_sprite">
	<rect id="Rectangle-Copy-16" x="157.3" y="9" class="st0" width="24" height="24"/>
	<rect id="Rectangle-Copy-20" x="205.3" y="9" class="st0" width="24" height="24"/>
	<rect id="Rectangle-Copy-18" x="133.3" y="9" class="st0" width="24" height="24"/>
	<rect id="Rectangle-Copy-21" x="181.3" y="9" class="st0" width="24" height="24"/>
	<rect id="Rectangle-Copy-19" x="109.3" y="9" class="st0" width="24" height="24"/>
	<rect id="Rectangle" x="133.3" y="-39" class="st0" width="24" height="24"/>
	<rect id="Rectangle-Copy" x="157.3" y="-39" class="st0" width="24" height="24"/>
	<rect id="Rectangle-Copy-5" x="181.3" y="-15" class="st0" width="24" height="24"/>
	<rect id="Rectangle-Copy-13" x="133.3" y="-15" class="st0" width="24" height="24"/>
	<g id="Group-3" transform="translate(96.000000, 24.000000)">
		<rect id="Rectangle-Copy-7" x="-159.3" y="29.1" class="st0" width="24" height="24"/>
		<g id="Cart-Button" transform="translate(1.000000, 1.000000)">
			<polyline id="Path" class="st1" points="-159.3,29.1 -156.8,32.2 -156.8,41.2 -158.3,44.7 -137.3,44.7 			"/>
			<polyline id="Path_00000119084980165296021470000018020669033639280554_" class="st1" points="-156.6,31.9 -139.2,31.9 
				-142.1,41.1 -156.6,41.1 			"/>
			<circle id="Oval" class="st2" cx="-156.6" cy="49.3" r="1.8"/>
			<circle id="Oval_00000162350867152737428670000018323296779496862891_" class="st2" cx="-140.1" cy="49.3" r="1.8"/>
		</g>
	</g>
	<rect id="Rectangle-Copy-15" x="157.3" y="-15" class="st0" width="24" height="24"/>
	<polyline id="Path_00000165203596320027819270000008881435687910079167_" class="st3" points="149.3,-5 145.3,-1 141.3,-5 	"/>
	<polyline id="Path-Copy" class="st3" points="173.3,-1 169.3,-5 165.3,-1 	"/>
	<circle id="Knob---Left" class="st4" cx="193.3" cy="-3" r="7"/>
	<rect id="Rectangle-Copy-17" x="109.3" y="-39" class="st0" width="24" height="24"/>
	<rect id="Rectangle-Copy-3" x="205.3" y="-39" class="st0" width="24" height="24"/>
	<rect id="Rectangle-Copy-2" x="181.3" y="-39" class="st0" width="24" height="24"/>
	<g id="Group" transform="translate(0.000000, 24.000000)">
		<rect id="Rectangle-Copy-4" x="109.3" y="-39" class="st0" width="24" height="24"/>
		<g id="Search" transform="translate(2.000000, 2.000000)">
			<line id="Path_00000062913432470593623250000000596127655575609476_" class="st3" x1="129.3" y1="-19" x2="123.3" y2="-25"/>
			<circle id="Oval_00000036250297523876773940000013923665909128737711_" class="st3" cx="117.3" cy="-31" r="8"/>
		</g>
	</g>
	<g id="Cart-Button_00000145742525650023191810000009350984802837442448_" transform="translate(1.000000, 1.000000)">
		<polyline id="Path_00000107578761037383448490000003711555381867075220_" class="st5" points="109.3,-39 111.8,-36 111.8,-27 
			110.3,-23.4 131.3,-23.4 		"/>
		<polyline id="Path_00000108995645679990605280000016985186405567115950_" class="st5" points="112.1,-36.3 129.5,-36.3 
			126.5,-27.1 112.1,-27.1 		"/>
		<circle id="Oval_00000084500687339120605490000008274914213145550525_" class="st3" cx="112.1" cy="-18.9" r="1.8"/>
		<circle id="Oval_00000170974274936631354630000009891635995239481486_" class="st3" cx="128.6" cy="-18.9" r="1.8"/>
	</g>
	<path id="Combined-Shape" class="st6" d="M34.1,25.5c0.6,0,1,0.4,1,1s-0.4,1-1,1h-22c-0.6,0-1-0.4-1-1s0.4-1,1-1H34.1z M34.1,18.5
		c0.6,0,1,0.4,1,1s-0.4,1-1,1h-22c-0.6,0-1-0.4-1-1s0.4-1,1-1H34.1z M34.1,11.5c0.6,0,1,0.4,1,1c0,0.6-0.4,1-1,1h-22
		c-0.6,0-1-0.4-1-1c0-0.6,0.4-1,1-1H34.1z"/>
	<polyline id="Arrow" class="st3" points="153.3,-31 145.3,-23 137.3,-31 	"/>
	<polyline id="Arrow-Copy" class="st3" points="177.3,-23 169.3,-31 161.3,-23 	"/>
	<g id="Add-to-Cart-Button" transform="translate(97.000000, 1.000000)">
		<polyline id="Path_00000029017132955677398920000002746121915557951889_" class="st5" points="109.3,-39 111.8,-36 111.8,-27 
			110.3,-23.4 131.3,-23.4 		"/>
		<polyline id="Path_00000181064006765243988110000003298611919611111330_" class="st5" points="112.1,-36.3 129.5,-36.3 
			126.5,-27.1 112.1,-27.1 		"/>
		<circle id="Oval_00000055700099678899673520000005365984956123216528_" class="st3" cx="112.1" cy="-18.9" r="1.8"/>
		<circle id="Oval_00000149353081409905291760000001720933480649550224_" class="st3" cx="128.6" cy="-18.9" r="1.8"/>
		
			<rect id="Rectangle_00000078008989978355471390000001011669216874159541_" x="119.4" y="-34.4" class="st7" width="1.8" height="5.5"/>
		<polygon id="Rectangle_00000159453139560401581050000004577996866060733629_" class="st7" points="123.1,-32.6 123.1,-30.8 
			117.6,-30.8 117.6,-32.6 		"/>
	</g>
	<g id="Group-2" transform="translate(3.000000, 51.000000)">
		<path id="Combined-Shape_00000015332580508730927980000005406925064170449043_" class="st8" d="M-43.5-40c0.4,0.4,0.4,1,0,1.4
			l-7.1,7.1l7.1,7.1c0.4,0.4,0.4,1,0,1.4c-0.4,0.4-1,0.4-1.4,0l-7.1-7.1l-7.1,7.1c-0.4,0.4-1,0.4-1.4,0c-0.4-0.4-0.4-1,0-1.4
			l7.1-7.1l-7.1-7.1c-0.4-0.4-0.4-1,0-1.4s1-0.4,1.4,0l7.1,7.1l7.1-7.1C-44.4-40.5-43.9-40.5-43.5-40z"/>
	</g>
</g>
</svg>
