<?xml version="1.0" encoding="utf-8"?>
<!-- Generator: Adobe Illustrator 28.0.0, SVG Export Plug-In . SVG Version: 6.00 Build 0)  -->
<svg version="1.1" id="Layer_1" xmlns="http://www.w3.org/2000/svg" xmlns:xlink="http://www.w3.org/1999/xlink" x="0px" y="0px"
	 viewBox="0 0 47.7 39.4" style="enable-background:new 0 0 47.7 39.4;" xml:space="preserve">
<style type="text/css">
	.st0{fill-rule:evenodd;clip-rule:evenodd;fill:#FFFFFF;fill-opacity:1.000000e-02;}
	.st1{fill:none;stroke:#FFFFFF;stroke-width:2;}
	.st2{fill:none;stroke:#FFFFFF;stroke-width:2;stroke-linecap:square;}
	.st3{fill:none;stroke:#131313;stroke-width:2;stroke-linecap:square;}
	.st4{fill:none;stroke:#1B1B1B;stroke-width:2;}
	.st5{fill:none;stroke:#131313;stroke-width:2;}
	.st6{fill:#1B1B1B;}
	.st7{fill-rule:evenodd;clip-rule:evenodd;fill:#1B1B1B;}
	.st8{fill:#FFFFFF;}
</style>
<g id="icons_sprite">
	<rect id="Rectangle-Copy-16" x="231.4" y="-35.6" class="st0" width="24" height="24"/>
	<rect id="Rectangle-Copy-20" x="279.4" y="-35.6" class="st0" width="24" height="24"/>
	<rect id="Rectangle-Copy-18" x="207.4" y="-35.6" class="st0" width="24" height="24"/>
	<rect id="Rectangle-Copy-21" x="255.4" y="-35.6" class="st0" width="24" height="24"/>
	<rect id="Rectangle-Copy-19" x="183.4" y="-35.6" class="st0" width="24" height="24"/>
	<rect id="Rectangle" x="207.4" y="-83.6" class="st0" width="24" height="24"/>
	<rect id="Rectangle-Copy" x="231.4" y="-83.6" class="st0" width="24" height="24"/>
	<rect id="Rectangle-Copy-5" x="255.4" y="-59.6" class="st0" width="24" height="24"/>
	<rect id="Rectangle-Copy-13" x="207.4" y="-59.6" class="st0" width="24" height="24"/>
	<g id="Group-3" transform="translate(96.000000, 24.000000)">
		<rect id="Rectangle-Copy-7" x="-85.3" y="-15.4" class="st0" width="24" height="24"/>
		<g id="Cart-Button" transform="translate(1.000000, 1.000000)">
			<polyline id="Path" class="st1" points="-85.3,-15.4 -82.8,-12.4 -82.8,-3.3 -84.3,0.2 -63.3,0.2 			"/>
			<polyline id="Path_00000119084980165296021470000018020669033639280554_" class="st1" points="-82.5,-12.6 -65.1,-12.6 
				-68.1,-3.5 -82.5,-3.5 			"/>
			<circle id="Oval" class="st2" cx="-82.5" cy="4.8" r="1.8"/>
			<circle id="Oval_00000162350867152737428670000018323296779496862891_" class="st2" cx="-66" cy="4.8" r="1.8"/>
		</g>
	</g>
	<rect id="Rectangle-Copy-15" x="231.4" y="-59.6" class="st0" width="24" height="24"/>
	<polyline id="Path_00000165203596320027819270000008881435687910079167_" class="st3" points="223.4,-49.6 219.4,-45.6 
		215.4,-49.6 	"/>
	<polyline id="Path-Copy" class="st3" points="247.4,-45.6 243.4,-49.6 239.4,-45.6 	"/>
	<circle id="Knob---Left" class="st4" cx="267.4" cy="-47.6" r="7"/>
	<rect id="Rectangle-Copy-17" x="183.4" y="-83.6" class="st0" width="24" height="24"/>
	<rect id="Rectangle-Copy-3" x="279.4" y="-83.6" class="st0" width="24" height="24"/>
	<rect id="Rectangle-Copy-2" x="255.4" y="-83.6" class="st0" width="24" height="24"/>
	<g id="Group" transform="translate(0.000000, 24.000000)">
		<rect id="Rectangle-Copy-4" x="183.4" y="-83.6" class="st0" width="24" height="24"/>
		<g id="Search" transform="translate(2.000000, 2.000000)">
			<line id="Path_00000062913432470593623250000000596127655575609476_" class="st3" x1="203.4" y1="-63.6" x2="197.4" y2="-69.6"/>
			<circle id="Oval_00000036250297523876773940000013923665909128737711_" class="st3" cx="191.4" cy="-75.6" r="8"/>
		</g>
	</g>
	<g id="Cart-Button_00000145742525650023191810000009350984802837442448_" transform="translate(1.000000, 1.000000)">
		<polyline id="Path_00000107578761037383448490000003711555381867075220_" class="st5" points="183.4,-83.6 185.9,-80.5 
			185.9,-71.5 184.4,-68 205.4,-68 		"/>
		<polyline id="Path_00000108995645679990605280000016985186405567115950_" class="st5" points="186.1,-80.8 203.6,-80.8 
			200.6,-71.6 186.1,-71.6 		"/>
		<circle id="Oval_00000084500687339120605490000008274914213145550525_" class="st3" cx="186.1" cy="-63.4" r="1.8"/>
		<circle id="Oval_00000170974274936631354630000009891635995239481486_" class="st3" cx="202.6" cy="-63.4" r="1.8"/>
	</g>
	<path id="Combined-Shape" class="st6" d="M108.1-19.1c0.6,0,1,0.4,1,1s-0.4,1-1,1h-22c-0.6,0-1-0.4-1-1s0.4-1,1-1H108.1z
		 M108.1-26.1c0.6,0,1,0.4,1,1s-0.4,1-1,1h-22c-0.6,0-1-0.4-1-1s0.4-1,1-1H108.1z M108.1-33.1c0.6,0,1,0.4,1,1c0,0.6-0.4,1-1,1h-22
		c-0.6,0-1-0.4-1-1c0-0.6,0.4-1,1-1H108.1z"/>
	<polyline id="Arrow" class="st3" points="227.4,-75.6 219.4,-67.6 211.4,-75.6 	"/>
	<polyline id="Arrow-Copy" class="st3" points="251.4,-67.6 243.4,-75.6 235.4,-67.6 	"/>
	<g id="Add-to-Cart-Button" transform="translate(97.000000, 1.000000)">
		<polyline id="Path_00000029017132955677398920000002746121915557951889_" class="st5" points="183.4,-83.6 185.9,-80.5 
			185.9,-71.5 184.4,-68 205.4,-68 		"/>
		<polyline id="Path_00000181064006765243988110000003298611919611111330_" class="st5" points="186.1,-80.8 203.6,-80.8 
			200.6,-71.6 186.1,-71.6 		"/>
		<circle id="Oval_00000055700099678899673520000005365984956123216528_" class="st3" cx="186.1" cy="-63.4" r="1.8"/>
		<circle id="Oval_00000149353081409905291760000001720933480649550224_" class="st3" cx="202.6" cy="-63.4" r="1.8"/>
		
			<rect id="Rectangle_00000078008989978355471390000001011669216874159541_" x="193.5" y="-79" class="st7" width="1.8" height="5.5"/>
		<polygon id="Rectangle_00000159453139560401581050000004577996866060733629_" class="st7" points="197.1,-77.1 197.1,-75.3 
			191.6,-75.3 191.6,-77.1 		"/>
	</g>
	<g id="Group-2" transform="translate(3.000000, 51.000000)">
		<path id="Combined-Shape_00000015332580508730927980000005406925064170449043_" class="st8" d="M30.6-84.6c0.4,0.4,0.4,1,0,1.4
			l-7.1,7.1l7.1,7.1c0.4,0.4,0.4,1,0,1.4c-0.4,0.4-1,0.4-1.4,0l-7.1-7.1L15-67.6c-0.4,0.4-1,0.4-1.4,0c-0.4-0.4-0.4-1,0-1.4l7.1-7.1
			l-7.1-7.1c-0.4-0.4-0.4-1,0-1.4s1-0.4,1.4,0l7.1,7.1l7.1-7.1C29.6-85,30.2-85,30.6-84.6z"/>
	</g>
</g>
</svg>
