<?xml version="1.0" encoding="utf-8"?>
<!-- Generator: Adobe Illustrator 28.0.0, SVG Export Plug-In . SVG Version: 6.00 Build 0)  -->
<svg version="1.1" id="Layer_1" xmlns="http://www.w3.org/2000/svg" xmlns:xlink="http://www.w3.org/1999/xlink" x="0px" y="0px"
	 viewBox="0 0 38.9 31.7" style="enable-background:new 0 0 38.9 31.7;" xml:space="preserve">
<style type="text/css">
	.st0{fill-rule:evenodd;clip-rule:evenodd;fill:#FFFFFF;fill-opacity:1.000000e-02;}
	.st1{fill:none;stroke:#FFFFFF;stroke-width:2;}
	.st2{fill:none;stroke:#FFFFFF;stroke-width:2;stroke-linecap:square;}
	.st3{fill:none;stroke:#131313;stroke-width:2;stroke-linecap:square;}
	.st4{fill:none;stroke:#1B1B1B;stroke-width:2;}
	.st5{fill:none;stroke:#131313;stroke-width:2;}
	.st6{fill:#1B1B1B;}
	.st7{fill-rule:evenodd;clip-rule:evenodd;fill:#1B1B1B;}
	.st8{fill:#FFFFFF;}
</style>
<g id="icons_sprite">
	<rect id="Rectangle-Copy-16" x="224.3" y="7" class="st0" width="24" height="24"/>
	<rect id="Rectangle-Copy-20" x="272.3" y="7" class="st0" width="24" height="24"/>
	<rect id="Rectangle-Copy-18" x="200.3" y="7" class="st0" width="24" height="24"/>
	<rect id="Rectangle-Copy-21" x="248.3" y="7" class="st0" width="24" height="24"/>
	<rect id="Rectangle-Copy-19" x="176.3" y="7" class="st0" width="24" height="24"/>
	<rect id="Rectangle" x="200.3" y="-41" class="st0" width="24" height="24"/>
	<rect id="Rectangle-Copy" x="224.3" y="-41" class="st0" width="24" height="24"/>
	<rect id="Rectangle-Copy-5" x="248.3" y="-17" class="st0" width="24" height="24"/>
	<rect id="Rectangle-Copy-13" x="200.3" y="-17" class="st0" width="24" height="24"/>
	<g id="Group-3" transform="translate(96.000000, 24.000000)">
		<rect id="Rectangle-Copy-7" x="-92.4" y="27.2" class="st0" width="24" height="24"/>
		<g id="Cart-Button" transform="translate(1.000000, 1.000000)">
			<polyline id="Path" class="st1" points="-92.4,27.2 -89.9,30.2 -89.9,39.2 -91.4,42.8 -70.4,42.8 			"/>
			<polyline id="Path_00000119084980165296021470000018020669033639280554_" class="st1" points="-89.7,29.9 -72.2,29.9 -75.2,39.1 
				-89.7,39.1 			"/>
			<circle id="Oval" class="st2" cx="-89.7" cy="47.3" r="1.8"/>
			<circle id="Oval_00000162350867152737428670000018323296779496862891_" class="st2" cx="-73.2" cy="47.3" r="1.8"/>
		</g>
	</g>
	<rect id="Rectangle-Copy-15" x="224.3" y="-17" class="st0" width="24" height="24"/>
	<polyline id="Path_00000165203596320027819270000008881435687910079167_" class="st3" points="216.3,-7 212.3,-3 208.3,-7 	"/>
	<polyline id="Path-Copy" class="st3" points="240.3,-3 236.3,-7 232.3,-3 	"/>
	<circle id="Knob---Left" class="st4" cx="260.3" cy="-5" r="7"/>
	<rect id="Rectangle-Copy-17" x="176.3" y="-41" class="st0" width="24" height="24"/>
	<rect id="Rectangle-Copy-3" x="272.3" y="-41" class="st0" width="24" height="24"/>
	<rect id="Rectangle-Copy-2" x="248.3" y="-41" class="st0" width="24" height="24"/>
	<g id="Group" transform="translate(0.000000, 24.000000)">
		<rect id="Rectangle-Copy-4" x="176.3" y="-41" class="st0" width="24" height="24"/>
		<g id="Search" transform="translate(2.000000, 2.000000)">
			<line id="Path_00000062913432470593623250000000596127655575609476_" class="st3" x1="196.3" y1="-21" x2="190.3" y2="-27"/>
			<circle id="Oval_00000036250297523876773940000013923665909128737711_" class="st3" cx="184.3" cy="-33" r="8"/>
		</g>
	</g>
	<g id="Cart-Button_00000145742525650023191810000009350984802837442448_" transform="translate(1.000000, 1.000000)">
		<polyline id="Path_00000107578761037383448490000003711555381867075220_" class="st5" points="176.3,-41 178.8,-38 178.8,-28.9 
			177.3,-25.4 198.3,-25.4 		"/>
		<polyline id="Path_00000108995645679990605280000016985186405567115950_" class="st5" points="179,-38.2 196.4,-38.2 193.4,-29.1 
			179,-29.1 		"/>
		<circle id="Oval_00000084500687339120605490000008274914213145550525_" class="st3" cx="179" cy="-20.8" r="1.8"/>
		<circle id="Oval_00000170974274936631354630000009891635995239481486_" class="st3" cx="195.5" cy="-20.8" r="1.8"/>
	</g>
	<path id="Combined-Shape" class="st6" d="M101,23.5c0.6,0,1,0.4,1,1s-0.4,1-1,1H79c-0.6,0-1-0.4-1-1s0.4-1,1-1H101z M101,16.5
		c0.6,0,1,0.4,1,1s-0.4,1-1,1H79c-0.6,0-1-0.4-1-1s0.4-1,1-1H101z M101,9.5c0.6,0,1,0.4,1,1c0,0.6-0.4,1-1,1H79c-0.6,0-1-0.4-1-1
		c0-0.6,0.4-1,1-1H101z"/>
	<polyline id="Arrow" class="st3" points="220.3,-33 212.3,-25 204.3,-33 	"/>
	<polyline id="Arrow-Copy" class="st3" points="244.3,-25 236.3,-33 228.3,-25 	"/>
	<g id="Add-to-Cart-Button" transform="translate(97.000000, 1.000000)">
		<polyline id="Path_00000029017132955677398920000002746121915557951889_" class="st5" points="176.3,-41 178.8,-38 178.8,-28.9 
			177.3,-25.4 198.3,-25.4 		"/>
		<polyline id="Path_00000181064006765243988110000003298611919611111330_" class="st5" points="179,-38.2 196.4,-38.2 193.4,-29.1 
			179,-29.1 		"/>
		<circle id="Oval_00000055700099678899673520000005365984956123216528_" class="st3" cx="179" cy="-20.8" r="1.8"/>
		<circle id="Oval_00000149353081409905291760000001720933480649550224_" class="st3" cx="195.5" cy="-20.8" r="1.8"/>
		
			<rect id="Rectangle_00000078008989978355471390000001011669216874159541_" x="186.3" y="-36.4" class="st7" width="1.8" height="5.5"/>
		<polygon id="Rectangle_00000159453139560401581050000004577996866060733629_" class="st7" points="190,-34.6 190,-32.7 
			184.5,-32.7 184.5,-34.6 		"/>
	</g>
	<g id="Group-2" transform="translate(3.000000, 51.000000)">
		<path id="Combined-Shape_00000015332580508730927980000005406925064170449043_" class="st8" d="M23.5-42c0.4,0.4,0.4,1,0,1.4
			l-7.1,7.1l7.1,7.1c0.4,0.4,0.4,1,0,1.4c-0.4,0.4-1,0.4-1.4,0L15-32.1L7.9-25c-0.4,0.4-1,0.4-1.4,0c-0.4-0.4-0.4-1,0-1.4l7.1-7.1
			l-7.1-7.1c-0.4-0.4-0.4-1,0-1.4s1-0.4,1.4,0l7.1,7.1l7.1-7.1C22.5-42.4,23-42.4,23.5-42z"/>
	</g>
</g>
</svg>
